<?xml version="1.0" standalone="no"?>
<!DOCTYPE svg PUBLIC "-//W3C//DTD SVG 20010904//EN"
 "http://www.w3.org/TR/2001/REC-SVG-20010904/DTD/svg10.dtd">
<svg version="1.0" xmlns="http://www.w3.org/2000/svg"
 width="288.000000pt" height="175.000000pt" viewBox="0 0 288.000000 175.000000"
 preserveAspectRatio="xMidYMid meet">

<g transform="translate(0.000000,175.000000) scale(0.100000,-0.100000)"
fill="#000000" stroke="none">
<path d="M192 1610 c-31 -13 -42 -48 -42 -136 0 -72 -1 -74 -25 -74 -21 0 -25
-5 -25 -30 0 -25 4 -30 25 -30 l25 0 0 -225 0 -225 40 0 40 0 0 225 0 225 30
0 c27 0 30 3 30 30 0 27 -3 30 -30 30 l-30 0 0 68 c0 70 10 92 42 92 13 0 18
8 18 30 0 28 -2 30 -37 29 -21 0 -48 -4 -61 -9z m57 -15 c15 5 21 2 21 -9 0
-9 -4 -17 -10 -17 -5 -1 -16 -2 -22 -3 -9 -1 -13 -26 -13 -91 l0 -90 28 3 c21
2 27 -1 27 -17 0 -14 -8 -21 -27 -23 l-28 -3 -3 -222 -2 -223 -30 0 -29 0 -3
234 c-2 129 -1 233 2 231 3 -1 14 1 25 6 19 7 19 8 -2 8 -16 1 -21 5 -16 17 5
13 7 13 14 2 10 -14 10 -12 13 51 2 35 -2 45 -16 49 -20 5 -24 27 -6 38 6 4 8
3 5 -3 -3 -5 -1 -10 6 -10 7 0 12 11 12 24 0 26 -5 28 -25 11 -8 -7 -2 2 14
20 19 20 32 28 37 21 4 -6 16 -8 28 -4z m-69 -119 c0 -3 -4 -8 -10 -11 -5 -3
-10 -1 -10 4 0 6 5 11 10 11 6 0 10 -2 10 -4z m-42 -111 c-3 -3 -9 2 -12 12
-6 14 -5 15 5 6 7 -7 10 -15 7 -18z"/>
<path d="M320 1145 l0 -255 40 0 40 0 0 255 0 255 -40 0 -40 0 0 -255z m52
138 c0 -47 5 -81 12 -85 7 -5 6 -8 -4 -8 -13 0 -13 -1 0 -10 13 -9 13 -10 0
-10 -13 0 -13 -1 0 -10 13 -9 13 -10 0 -10 -13 0 -13 -1 0 -10 13 -9 13 -10 0
-10 -13 0 -13 -1 0 -10 13 -9 13 -10 0 -10 -13 0 -13 -1 0 -10 10 -6 11 -10 3
-10 -18 0 -18 -140 0 -141 8 0 8 -2 -2 -6 -11 -5 -11 -7 0 -14 12 -7 11 -9 -1
-9 -13 0 -13 -1 0 -10 12 -8 9 -10 -12 -10 l-28 0 0 195 c0 149 3 195 13 196
9 0 9 2 -1 6 -10 4 -10 8 0 21 11 12 11 16 0 20 -10 3 -10 7 -1 18 18 22 21
12 21 -73z"/>
<path d="M475 1375 c-21 -20 -25 -34 -25 -85 0 -76 13 -101 88 -170 44 -40 62
-64 67 -90 9 -49 -8 -90 -38 -90 -34 0 -47 19 -47 67 l0 43 -40 0 -40 0 0 -45
c0 -49 20 -99 43 -108 76 -29 169 -10 187 38 15 38 12 132 -4 163 -8 15 -41
53 -74 85 -34 33 -63 70 -67 86 -7 34 9 81 29 81 37 0 46 -12 46 -61 l0 -49
40 0 40 0 0 50 c0 28 -4 50 -10 50 -5 0 -10 -5 -10 -11 0 -7 -8 -18 -17 -25
-17 -12 -17 -14 2 -28 20 -15 20 -15 0 -16 -22 0 -32 34 -14 45 11 7 12 26 2
24 -21 -3 -26 2 -13 12 12 9 12 10 -4 5 -14 -5 -17 -2 -12 10 6 14 0 16 -38
12 -35 -4 -43 -2 -39 8 8 21 73 17 111 -6 17 -11 32 -15 32 -10 0 19 -60 40
-115 40 -46 0 -60 -4 -80 -25z m39 -20 c3 -8 1 -15 -4 -15 -6 0 -10 7 -10 15
0 8 2 15 4 15 2 0 6 -7 10 -15z m-24 -15 c0 -5 6 -10 13 -10 8 0 12 -15 11
-44 -2 -41 2 -48 62 -111 35 -37 64 -63 64 -59 0 5 7 -4 15 -20 8 -15 15 -54
15 -85 0 -66 -21 -105 -51 -96 -10 4 -19 2 -19 -4 0 -13 -83 -10 -92 3 -11 15
-10 26 2 26 6 0 10 -7 10 -15 0 -17 16 -20 25 -5 3 6 16 10 29 10 28 0 46 35
46 89 0 33 -7 45 -50 85 -27 26 -50 49 -50 52 0 3 -12 15 -26 27 -29 26 -42
90 -23 113 6 8 9 23 6 34 -3 11 -1 20 4 20 5 0 9 -4 9 -10z m-16 -336 c9 -23
8 -26 -6 -18 -7 4 -5 -2 5 -14 10 -11 17 -29 14 -39 -4 -14 -5 -14 -6 5 0 12
-7 21 -13 20 -8 -2 -13 10 -14 30 -2 34 10 43 20 16z m26 -5 c0 -6 -4 -7 -10
-4 -5 3 -10 11 -10 16 0 6 5 7 10 4 6 -3 10 -11 10 -16z"/>
<path d="M755 1376 c-33 -33 -37 -66 -33 -258 3 -161 4 -167 27 -192 35 -37
86 -51 137 -37 57 15 83 47 91 109 l6 52 -42 0 -41 0 0 -39 c0 -43 -20 -71
-50 -71 -37 0 -50 27 -50 106 l0 74 91 0 91 0 -4 111 c-3 111 -3 111 -36 140
-22 20 -42 29 -65 28 -17 0 -26 -3 -19 -6 20 -8 14 -22 -8 -16 -11 3 -17 9
-14 14 13 21 -58 8 -81 -15z m40 -40 c-4 -11 -9 -33 -12 -48 -3 -17 -10 -25
-19 -21 -8 3 -14 0 -14 -7 0 -6 -5 -8 -11 -4 -8 5 -8 9 1 14 9 6 9 9 1 15 -9
5 -9 10 0 21 6 7 9 21 5 29 -3 9 0 15 10 15 8 0 13 4 10 9 -4 5 3 7 15 4 16
-4 19 -11 14 -27z m83 8 c19 -13 22 -24 22 -90 l0 -74 -50 0 -50 0 0 74 c0 66
3 77 22 90 12 9 25 16 28 16 3 0 16 -7 28 -16z m72 1 c0 -1 -6 -8 -14 -14 -11
-9 -15 -7 -19 8 -3 14 0 17 14 14 11 -3 19 -7 19 -8z m17 -74 c3 -25 1 -46 -6
-55 -9 -11 -9 -19 0 -34 10 -16 10 -23 0 -36 -14 -16 -77 -22 -83 -8 -2 4 -24
2 -49 -5 -44 -13 -47 -15 -48 -51 -1 -20 -2 -54 -4 -74 -1 -21 1 -38 4 -38 4
0 9 -9 12 -20 4 -16 14 -20 45 -20 57 0 102 18 102 41 0 10 4 19 8 19 13 0 2
-58 -13 -70 -8 -6 -39 -14 -71 -17 -46 -5 -55 -3 -49 7 6 10 3 12 -13 8 -13
-4 -27 1 -37 12 -13 15 -14 22 -3 45 10 23 10 28 -5 36 -22 13 -22 30 0 22 11
-4 14 -3 9 5 -4 7 -14 12 -22 12 -8 0 -14 7 -14 16 0 11 6 14 23 9 17 -5 19
-4 7 4 -12 8 -12 13 -2 23 7 7 13 42 13 83 2 57 3 62 8 30 l6 -40 78 -2 c62
-1 77 2 77 14 0 8 -4 12 -8 9 -10 -6 -8 57 2 102 10 43 26 30 33 -27z m-209
-279 c2 -7 -3 -12 -10 -12 -8 0 -15 7 -15 15 0 18 19 15 25 -3z"/>
<path d="M755 1307 c-4 -10 -5 -21 -1 -24 10 -10 18 4 13 24 -4 17 -4 17 -12
0z"/>
<path d="M853 913 c9 -2 23 -2 30 0 6 3 -1 5 -18 5 -16 0 -22 -2 -12 -5z"/>
<path d="M1020 1145 l0 -255 40 0 40 0 0 195 c0 182 1 196 20 215 11 11 29 20
40 20 17 0 20 7 20 40 0 34 -3 40 -20 40 -12 0 -32 -12 -45 -26 l-25 -27 0 27
c0 23 -4 26 -35 26 l-35 0 0 -255z m37 239 c-3 -3 -12 -4 -19 -1 -8 3 -5 6 6
6 11 1 17 -2 13 -5z m29 -33 c12 -15 49 -8 40 7 -3 5 1 9 8 9 8 0 12 -6 9 -14
-3 -7 -9 -13 -15 -13 -5 0 -7 -4 -4 -9 3 -4 -3 -16 -14 -26 -19 -17 -20 -32
-20 -212 l0 -194 -27 3 -28 3 -3 144 c-1 87 1 148 8 156 5 6 7 15 3 18 -10 11
-9 67 2 67 7 0 7 3 0 8 -9 6 -10 14 -6 60 1 16 32 12 47 -7z"/>
<path d="M1215 1378 c6 -27 75 -467 75 -480 0 -4 27 -8 60 -8 33 0 60 2 60 4
0 2 6 41 14 87 8 46 24 147 36 224 11 77 23 152 26 168 5 26 4 27 -35 27 -24
0 -41 -5 -41 -11 0 -51 -55 -406 -64 -411 -8 -6 -7 -8 1 -8 16 0 45 68 38 90
-3 10 0 17 9 17 9 0 12 -5 9 -10 -3 -6 -1 -7 4 -4 6 4 13 25 15 47 3 31 0 41
-13 45 -10 3 -16 13 -14 23 2 9 4 20 4 25 1 4 8 7 16 7 21 0 19 20 -2 20 -17
1 -16 2 1 15 15 11 17 17 7 29 -9 11 -9 15 1 18 11 4 11 8 0 20 -10 13 -10 17
3 22 11 4 14 13 9 31 -5 22 -3 25 19 25 21 0 24 -4 19 -27 -5 -26 -5 -26 -13
-5 -5 12 -11 22 -14 22 -8 0 5 -43 15 -50 4 -3 -2 -66 -13 -140 -16 -108 -24
-138 -40 -149 -17 -12 -18 -15 -3 -23 11 -6 14 -17 10 -36 -3 -15 -7 -37 -10
-49 -4 -20 -11 -23 -55 -23 -49 0 -51 1 -45 24 4 15 1 26 -7 29 -9 4 -8 8 3
17 11 9 12 13 3 17 -18 7 -16 23 2 23 8 0 16 6 16 13 1 6 5 -1 9 -18 7 -29 8
-30 9 -4 1 26 -34 308 -45 362 -5 24 -10 27 -45 27 -36 0 -39 -2 -34 -22z m79
-85 c13 -66 17 -153 7 -172 -8 -14 -8 -21 2 -24 6 -3 8 -6 2 -6 -5 0 -17 4
-25 9 -13 8 -13 11 -1 19 11 7 10 10 -4 18 -14 8 -15 14 -6 31 8 15 8 22 -2
25 -9 4 -8 8 3 16 12 8 12 11 -3 17 -14 5 -15 9 -6 20 6 8 9 24 5 37 -6 24 0
37 15 37 4 0 10 -12 13 -27z m112 -189 c-4 -9 -9 -15 -11 -12 -3 3 -3 13 1 22
4 9 9 15 11 12 3 -3 3 -13 -1 -22z m-86 -37 c0 -2 -10 -12 -21 -23 -22 -19
-22 -19 -10 4 10 18 31 31 31 19z"/>
<path d="M1412 1180 c0 -14 2 -19 5 -12 2 6 2 18 0 25 -3 6 -5 1 -5 -13z"/>
<path d="M1690 1155 l0 -35 273 -2 272 -3 5 -245 5 -245 33 0 32 0 0 282 0
283 -310 0 -310 0 0 -35z"/>
<path d="M1490 935 l0 -45 45 0 45 0 0 45 0 45 -45 0 -45 0 0 -45z m74 1 c7
-28 -13 -46 -27 -24 -10 14 -12 15 -22 2 -9 -12 -10 -10 -9 13 1 15 3 29 3 30
1 2 12 2 25 1 15 -1 27 -10 30 -22z"/>
<path d="M160 530 l0 -260 250 0 250 0 0 35 0 35 -215 0 -215 0 0 225 0 225
-35 0 -35 0 0 -260z m50 240 c0 -5 -4 -10 -9 -10 -6 0 -13 5 -16 10 -3 6 1 10
9 10 9 0 16 -4 16 -10z m-10 -25 c10 -12 10 -15 -1 -16 -10 0 -11 -2 -1 -6 6
-2 12 -11 12 -19 0 -8 -6 -14 -12 -14 -9 0 -9 -3 -3 -8 16 -11 18 -75 3 -69
-7 2 -12 11 -10 21 2 9 -2 16 -8 16 -15 0 -12 26 6 41 14 11 14 13 0 21 -17 9
-22 48 -7 48 5 0 14 -7 21 -15z m0 -156 c0 -5 -7 -9 -15 -9 -15 0 -20 12 -9
23 8 8 24 -1 24 -14z m10 -29 c0 -5 -4 -10 -9 -10 -6 0 -13 5 -16 10 -3 6 1
10 9 10 9 0 16 -4 16 -10z m-5 -30 c8 -13 -14 -42 -26 -34 -15 9 -10 24 9 24
14 0 15 2 2 10 -9 6 -10 10 -3 10 6 0 15 -5 18 -10z m5 -60 c0 -11 -4 -20 -9
-20 -11 0 -22 26 -14 34 12 12 23 5 23 -14z m-13 -32 c10 -18 13 -38 4 -38
-12 0 -31 23 -31 37 0 17 16 17 27 1z m11 -65 c-6 -31 28 -53 81 -53 44 0 50
-2 48 -20 -1 -23 -8 -25 -25 -8 -8 8 -15 9 -20 3 -4 -6 -28 -10 -54 -10 -40
-1 -48 2 -48 18 0 10 -5 27 -11 38 -7 15 -7 24 2 35 16 19 31 18 27 -3z m192
-61 c0 -10 -22 -32 -32 -32 -4 0 -8 9 -8 20 0 13 7 20 20 20 11 0 20 -4 20 -8z
m110 -13 c6 -11 5 -16 -5 -16 -8 0 -12 4 -9 9 8 13 -20 9 -35 -4 -11 -10 -13
-10 -7 0 5 7 1 12 -9 12 -9 0 -14 4 -11 9 9 14 67 7 76 -10z m50 11 c0 -5 -7
-10 -16 -10 -8 0 -12 5 -9 10 3 6 10 10 16 10 5 0 9 -4 9 -10z m90 3 c0 -5 -5
-15 -10 -23 -8 -12 -10 -12 -10 -1 0 11 -3 11 -15 1 -11 -10 -18 -9 -30 3 -23
23 -19 27 25 27 22 0 40 -3 40 -7z m-73 -29 c-3 -3 -12 -4 -19 -1 -8 3 -5 6 6
6 11 1 17 -2 13 -5z"/>
<path d="M800 355 l0 -175 30 0 30 0 0 70 0 70 80 0 80 0 0 30 0 30 -80 0 -80
0 0 50 0 50 90 0 c89 0 90 0 90 25 l0 25 -120 0 -120 0 0 -175z"/>
<path d="M1760 356 l0 -176 85 0 c156 0 228 56 228 176 0 63 -28 113 -81 146
-30 18 -55 23 -134 26 l-98 4 0 -176z m180 108 c46 -19 70 -55 70 -108 0 -78
-40 -115 -131 -123 l-59 -6 0 127 0 126 40 0 c22 0 58 -7 80 -16z"/>
<path d="M1550 455 c0 -18 -5 -25 -20 -25 -15 0 -20 -7 -20 -25 0 -18 5 -25
20 -25 18 0 20 -7 20 -83 0 -69 3 -87 18 -100 20 -18 102 -24 102 -8 0 22 -13
39 -26 34 -30 -11 -44 17 -44 88 l0 69 30 0 c25 0 30 4 30 25 0 21 -5 25 -30
25 -25 0 -30 4 -30 25 0 20 -5 25 -25 25 -20 0 -25 -5 -25 -25z"/>
<path d="M2360 455 c0 -18 -5 -25 -20 -25 -15 0 -20 -7 -20 -25 0 -18 5 -25
20 -25 18 0 20 -7 20 -80 0 -99 15 -120 85 -120 48 0 50 2 35 30 -7 12 -16 17
-27 13 -27 -10 -43 25 -43 94 l0 63 30 0 c25 0 30 4 30 25 0 21 -5 25 -30 25
-25 0 -30 4 -30 25 0 20 -5 25 -25 25 -20 0 -25 -5 -25 -25z"/>
<path d="M1265 432 c-11 -2 -28 -11 -37 -20 -16 -14 -18 -14 -18 1 0 11 -8 17
-25 17 l-25 0 0 -125 0 -125 25 0 c25 0 25 1 25 78 0 92 15 122 61 122 24 0
29 4 29 24 0 29 -7 34 -35 28z"/>
<path d="M1070 305 l0 -125 25 0 25 0 0 125 0 125 -25 0 -25 0 0 -125z"/>
<path d="M1339 412 c-25 -21 -30 -71 -10 -96 7 -8 29 -20 49 -27 44 -14 62
-27 62 -45 0 -21 -45 -27 -77 -10 -23 11 -33 12 -42 3 -30 -30 11 -57 89 -57
41 0 52 4 69 26 39 50 19 89 -61 118 -49 18 -59 34 -33 56 11 9 22 9 44 2 30
-11 51 -1 51 24 0 30 -106 34 -141 6z"/>
<path d="M2121 421 c-18 -12 -4 -54 16 -47 43 17 65 17 88 2 40 -26 33 -47
-14 -40 -100 16 -165 -60 -110 -130 17 -21 29 -26 65 -26 25 0 54 5 65 10 13
7 19 7 19 0 0 -5 14 -10 31 -10 l31 0 -4 101 c-4 96 -5 103 -31 125 -23 19
-39 24 -85 24 -31 0 -63 -4 -71 -9z m98 -127 c36 -7 40 -25 10 -55 -25 -25
-77 -23 -93 4 -9 15 -7 22 13 38 26 21 26 21 70 13z"/>
<path d="M2539 422 c-12 -5 -14 -13 -8 -29 7 -20 11 -21 44 -12 41 12 88 -5
93 -34 3 -16 -2 -17 -46 -11 -53 7 -104 -11 -116 -41 -12 -34 -6 -75 16 -95
28 -25 103 -28 130 -3 17 15 18 15 18 0 0 -11 8 -17 25 -17 l25 0 0 100 c0 94
-2 103 -25 125 -20 21 -33 25 -82 24 -32 0 -65 -3 -74 -7z m100 -128 c36 -8
39 -22 11 -52 -24 -25 -72 -29 -90 -7 -15 18 -4 52 18 58 27 7 28 7 61 1z"/>
</g>
</svg>
